<svg height="368pt" viewBox="0 0 368 368" width="368pt" xmlns="http://www.w3.org/2000/svg"><path d="m344 8h-320c-8.800781 0-16 7.199219-16 16v320c0 8.800781 7.199219 16 16 16h320c8.800781 0 16-7.199219 16-16v-320c0-8.800781-7.199219-16-16-16zm0 0" fill="#cce4ff"/><g fill="#007aff"><path d="m344 0h-320c-13.230469 0-24 10.769531-24 24v320c0 13.230469 10.769531 24 24 24h320c13.230469 0 24-10.769531 24-24v-320c0-13.230469-10.769531-24-24-24zm8 344c0 4.414062-3.59375 8-8 8h-320c-4.40625 0-8-3.585938-8-8v-320c0-4.40625 3.59375-8 8-8h320c4.40625 0 8 3.59375 8 8zm0 0"/><path d="m216 64h-112c-4.414062 0-8 3.585938-8 8v224c0 4.425781 3.585938 8 8 8h112c30.878906 0 56-25.128906 56-56v-16c0-20.382812-10.984375-38.199219-27.304688-48 16.320313-9.792969 27.304688-27.617188 27.304688-48v-16c0-30.878906-25.121094-56-56-56zm40 168v16c0 22.054688-17.945312 40-40 40h-104v-96h104c22.054688 0 40 17.945312 40 40zm0-96c0 22.054688-17.945312 40-40 40h-104v-96h104c22.054688 0 40 17.945312 40 40zm0 0"/></g></svg>