<?xml version="1.0" encoding="iso-8859-1"?>
<!-- Generator: Adobe Illustrator 16.0.0, SVG Export Plug-In . SVG Version: 6.00 Build 0)  -->
<!DOCTYPE svg PUBLIC "-//W3C//DTD SVG 1.1//EN" "http://www.w3.org/Graphics/SVG/1.1/DTD/svg11.dtd">
<svg version="1.1" id="Capa_1" xmlns="http://www.w3.org/2000/svg" xmlns:xlink="http://www.w3.org/1999/xlink" x="0px" y="0px"
	 width="50.491px" height="50.491px" viewBox="0 0 50.491 50.491" style="enable-background:new 0 0 50.491 50.491;"
	 xml:space="preserve">
<g>
	<g>
		<path d="M40.996,28.721c-2.448-2.371-6.724,0.924-7.368-3.854c-0.4-2.973,5.336-1.877,7.082-3.623
			c2.245-2.244,1.127-3.577-1.6-4.548c-5.521-1.967-11.381,2.355-12.301,7.695c-0.094,0.544-0.094,1.441-0.008,1.986
			c0.529,3.33,2.762,5.819,5.619,6.904c0.516,0.195,0.934,0.32,0.909,0.343c-0.024,0.021,0.072,0.074,0.216,0.113
			c0.145,0.037,0.28,0.048,0.303,0.022c0.023-0.022,0.482,0.05,1.033,0.098c1.463,0.128,2.998-0.092,4.497-0.717
			C41.656,32.191,43.161,30.818,40.996,28.721z M28.703,25.664c-0.06-0.438-0.056-1.245,0.028-1.791
			c0.012-0.068,0.022-0.136,0.035-0.203c0.097-0.544,0.533-1.295,0.918-1.69c1.235-1.266,2.459-2.52,3.66-3.75
			c0.387-0.395,0.483-0.669,0.221-0.593c-0.262,0.076-0.793,0.461-1.188,0.847c-1.165,1.136-0.303,0.349-2.175,2.161
			c-0.396,0.384-0.538,0.283-0.249-0.188c1.433-2.328,3.992-3.771,7.565-3.029c0.186,0.039,0.359,0.087,0.521,0.143
			c0.283,0.096,0.39,0.166,0.255,0.119c-0.135-0.047-0.48,0.144-0.771,0.416c-0.289,0.272-0.185,0.273,0.265,0.057
			c0.449-0.218,1.253-0.156,1.618,0.259c1.138,1.299,0.259,3.239-2.075,3.012c-0.718-0.07-1.601-0.002-2.448,0.229
			c-0.533,0.145-0.814,0.07-0.635-0.242s0.031-0.236-0.365,0.147c-1.519,1.471-0.822,0.699-4.337,4.182
			C29.153,26.137,28.762,26.102,28.703,25.664z M29.174,27.729c-0.136-0.397,0.11-1.033,0.514-1.41
			c0.484-0.453,0.965-0.904,1.443-1.354c0.403-0.377,0.719-0.638,0.706-0.581c-0.008,0.034-0.016,0.068-0.02,0.104
			c-0.04,0.299-0.056,0.58-0.048,0.848c0.015,0.47-0.219,1.147-0.625,1.524c-0.32,0.299-0.643,0.597-0.963,0.896
			C29.777,28.132,29.309,28.126,29.174,27.729z M39.422,31.209c-1.195,1.176-2.429,1.759-3.701,1.765
			c-0.552,0.002-0.765-0.344-0.482-0.632c0.281-0.287,0.46-0.563,0.4-0.617c-0.061-0.053-0.387,0.153-0.729,0.465
			c-0.343,0.312-0.806,0.508-1.026,0.418c-0.13-0.053-0.261-0.11-0.392-0.178c-0.263-0.119-0.519-0.252-0.767-0.397
			c-0.412-0.24-0.407-0.794-0.014-1.182c0.196-0.19,0.393-0.382,0.59-0.569c0.399-0.383,0.707-0.728,0.685-0.774
			c-0.022-0.048-0.36,0.227-0.755,0.612c-0.217,0.212-0.434,0.424-0.649,0.635c-0.396,0.386-1.088,0.447-1.489,0.066
			c-0.142-0.136-0.277-0.275-0.406-0.422c-0.365-0.413-0.277-1.099,0.127-1.474c0.303-0.279,0.604-0.56,0.904-0.839
			c0.405-0.376,1.004-0.313,1.445,0.018c0.305,0.229,0.659,0.43,1.066,0.602c1.627,0.688,3.08-0.627,4.758,0.483
			c0.211,0.142,0.42,0.36,0.609,0.595C39.893,30.149,39.815,30.822,39.422,31.209z"/>
		<path d="M34.768,8.357c-0.002,0.008,0.002,0.015,0,0.023C34.975,8.161,34.994,8.134,34.768,8.357z"/>
		<path d="M38.872,37.873c-2.968-1.564-6.382-0.796-9.459-2.819c-2.991-1.967-4.53-5.393-5.086-8.799
			c-0.718-4.393,1.659-8.63,4.945-11.308c4.688-3.82,5.664-0.528,8.48-2.428c2.764-1.863,1.956-5.509-1.324-5.63
			C25.989,6.505,17.708,15.342,17.32,25.384c0.348,9.013,8.75,19.462,18.674,18.171c0.547-0.071,0.998-0.167,1.013-0.167
			c0.014,0,0.184-0.04,0.379-0.085c0.118-0.026,0.235-0.056,0.354-0.087C39.701,42.69,41.145,39.07,38.872,37.873z M23.524,13.591
			c0.651-0.771,1.375-1.509,2.178-2.202c0.063-0.055,0.147-0.118,0.247-0.188c0.141-0.099-0.058,0.146-0.447,0.539
			c-0.634,0.64-1.267,1.279-1.9,1.92C23.215,14.053,23.168,14.013,23.524,13.591z M19.929,20.447
			c0.282-1.037,0.653-2.035,1.111-2.991c0.238-0.498,0.779-1.2,1.177-1.583c0.364-0.351,0.728-0.701,1.092-1.056
			c1.364-1.381,2.734-2.752,4.102-4.127c0.391-0.392,1.107-0.907,1.609-1.135c2.152-0.969,4.828-1.876,6.565-1.708
			c0.55,0.053,0.792,0.43,0.585,0.643c-0.207,0.212-0.1,0.29,0.244,0.19c0.344-0.102,0.885,0.148,0.954,0.63
			c0.037,0.253,0.033,0.543-0.017,0.875c-0.326,2.175-2.228,1.747-3.896,2.02c-1.973,0.322-3.878,1.174-5.54,2.39
			c-0.446,0.326-0.524,0.255-0.173-0.171c1.25-1.521,2.748-2.832,4.434-3.868c0.469-0.289,1.135-0.768,1.471-1.096
			c0.244-0.238,0.449-0.438,0.611-0.591c0.241-0.242,0.4-0.401,0.512-0.511c0.05-0.218-0.116-0.361-0.496-0.327
			c-0.014,0.001-0.026,0.003-0.039,0.004c-0.551,0.051-1.213,0.32-1.482,0.569c-0.165,0.151-0.328,0.302-0.488,0.45
			c-3.84,3.768-7.802,7.664-11.858,11.663C20.012,21.104,19.784,20.98,19.929,20.447z M19.286,25.351
			c-0.014-0.161-0.026-0.321-0.033-0.483c0.005-0.138,0.018-0.273,0.031-0.408c0.022-0.225,0.351-0.729,0.736-1.125
			c0.983-1.013,1.94-1.997,2.864-2.946c0.386-0.396,0.493-0.318,0.288,0.194c-0.123,0.306-0.233,0.616-0.331,0.93
			c-0.164,0.527-0.569,1.288-0.954,1.685c-0.621,0.641-1.242,1.281-1.863,1.922C19.64,25.515,19.309,25.619,19.286,25.351z
			 M19.905,29.402c-0.007-0.026-0.013-0.053-0.02-0.078c-0.136-0.535,0.096-1.291,0.487-1.682c0.347-0.345,0.693-0.689,1.043-1.035
			c0.117-0.128,0.234-0.257,0.352-0.385c0.194-0.213,0.03-0.074-0.367,0.311c-0.363,0.35-0.714,0.688-1.034,0.998
			c-0.397,0.384-0.771,0.434-0.822,0.111c-0.051-0.321,0.233-0.897,0.627-1.286c0.481-0.475,0.962-0.948,1.443-1.423
			c0.393-0.389,0.695-0.444,0.694-0.125c0,0.191,0.004,0.383,0.015,0.576c0.028,0.523,0.084,1.029,0.161,1.521
			c0.085,0.546-0.135,1.3-0.527,1.688c-0.359,0.356-0.715,0.711-1.069,1.062C20.495,30.048,20.042,29.937,19.905,29.402z
			 M21.698,33.864c-0.269-0.471-0.514-0.952-0.736-1.446c-0.227-0.504-0.071-1.245,0.313-1.642c0.331-0.341,0.66-0.681,0.99-1.02
			c0.385-0.396,0.823-0.286,1.021,0.23c0.221,0.575,0.479,1.132,0.779,1.667c0.269,0.481,0.195,1.157-0.208,1.534
			c-0.301,0.28-0.603,0.562-0.904,0.844C22.549,34.409,21.972,34.344,21.698,33.864z M33.854,42.12
			c-0.545-0.081-0.883-0.28-0.756-0.415c0.125-0.135-0.172-0.445-0.651-0.723c-0.034-0.02-0.068-0.039-0.103-0.06
			c-0.477-0.279-1.061-0.323-1.326-0.066c-0.267,0.258-0.903,0.315-1.405,0.087c-0.347-0.158-0.685-0.33-1.019-0.515
			c-0.482-0.268-0.543-0.827-0.154-1.219c0.007-0.006,0.013-0.012,0.019-0.019c0.39-0.392,0.533-0.871,0.329-1.083
			c-0.204-0.211-0.693-0.085-1.102,0.287c-0.066,0.062-0.133,0.121-0.2,0.184c-0.408,0.372-1.102,0.414-1.538,0.075
			c-0.371-0.289-0.733-0.588-1.087-0.894c-0.134-0.115-0.259-0.237-0.382-0.361c-0.204-0.205-0.053-0.694,0.334-1.089
			c0.247-0.25,0.494-0.501,0.741-0.752c0.388-0.394,0.674-0.759,0.639-0.816c-0.035-0.059-0.391,0.198-0.796,0.574
			c-0.274,0.255-0.548,0.509-0.822,0.762c-0.405,0.375-0.95,0.453-1.199,0.159c-0.249-0.296-0.11-0.847,0.297-1.22
			c0.306-0.28,0.611-0.562,0.917-0.843c0.407-0.373,1.018-0.327,1.394,0.077c0.489,0.526,1.03,1.032,1.625,1.517
			c1.411,1.15,3.194,1.768,4.917,2.241c1.688,0.465,4.266-0.217,5.185,1.887C38.799,42.39,36.094,42.448,33.854,42.12z"/>
		<path d="M33.338,9.913c0.045-0.021,0.393-0.36,0.778-0.757c0.153-0.158,0.306-0.314,0.457-0.47
			c0.108-0.112,0.166-0.214,0.194-0.306c-0.168,0.177-0.445,0.467-0.816,0.852C33.569,9.631,33.293,9.933,33.338,9.913z"/>
		<path d="M31.869,44.079c-9.681-1.028-16.166-10.011-16.491-19.212c-0.173-4.898,2.073-9.557,5.223-13.154
			c2.124-2.425,5.1-4.049,8.121-5.033c2.133-0.694,4.363-0.185,6.428-0.737c1.719-0.461,1.99-1.874,2.15-3.464
			c0.293-2.899-2.334-2.482-4.267-2.428C19.377,0.432,8.819,12.073,8.446,25.385c0.221,7.884,3.617,14.703,9.737,19.655
			c4.118,3.332,11.858,6.545,17.278,5.093c0.037-0.01,0.07-0.021,0.103-0.035c0.056-0.021,0.089-0.025,0.072-0.01
			c-0.016,0.016-0.01,0.015,0.012-0.004c0.022-0.019,0.49-0.155,0.912-0.511c0.729-0.613,0.922-1.573,0.803-2.705
			C36.997,43.414,34.602,44.369,31.869,44.079z M12.647,14.863c0.342-0.75,0.723-1.482,1.141-2.196
			c0.279-0.477,0.843-1.166,1.239-1.551c1.455-1.416,2.932-2.854,4.453-4.335l2.358-2.212c0.402-0.378,1.121-0.901,1.616-1.146
			c0.522-0.258,1.053-0.494,1.593-0.711c0.512-0.205,0.616-0.04,0.22,0.345C21.08,7.128,17.27,10.88,12.97,15.08
			C12.573,15.468,12.418,15.365,12.647,14.863z M12.94,15.147c2.358-2.295,4.153-4.028,2.952-2.793
			c-0.407,0.393-1.475,1.425-2.991,2.891c-0.397,0.385-0.71,0.675-0.698,0.648C12.215,15.867,12.544,15.533,12.94,15.147z
			 M10.809,20.763c0.099-0.545,0.214-1.085,0.347-1.617c0.133-0.536,0.575-1.285,0.962-1.68c5.038-5.127,9.985-10.104,14.805-14.9
			c0.391-0.39,0.342-0.61-0.105-0.474c-0.447,0.137-0.382,0.109,0.146-0.052c1.357-0.414,2.75-0.717,4.155-0.914
			c1.889-0.267,4.459-0.331,4.161,2.624c-0.183,1.792-2.636,1.346-3.864,1.477c-6.795,0.722-12.309,4.96-15.364,10.635
			c-0.262,0.486-0.769,1.208-1.157,1.601c-1.181,1.191-2.361,2.384-3.541,3.577C10.962,21.431,10.709,21.306,10.809,20.763z
			 M10.396,25.311c-0.008-0.147-0.015-0.295-0.019-0.442c0.013-0.475,0.04-0.944,0.078-1.41c0.045-0.551,0.423-1.305,0.823-1.685
			c0.98-0.934,1.958-1.872,2.936-2.818c0.397-0.384,0.553-0.279,0.378,0.244c-0.25,0.742-0.457,1.501-0.626,2.271
			c-0.118,0.54-0.512,1.296-0.906,1.684c-0.64,0.631-1.283,1.266-1.928,1.9C10.74,25.44,10.409,25.556,10.396,25.311z M10.735,28.63
			c-0.068-0.425,0.199-1.091,0.583-1.487c0.496-0.511,0.985-1.016,1.468-1.513c0.385-0.396,0.69-0.611,0.677-0.482
			c-0.007,0.078-0.014,0.157-0.017,0.236c-0.008,0.228-0.01,0.45-0.009,0.674c0.003,0.371-0.295,0.992-0.679,1.39
			c-0.398,0.409-0.796,0.82-1.194,1.231C11.18,29.076,10.802,29.055,10.735,28.63z M11.229,31.029
			c-0.075-0.297,0.188-0.853,0.582-1.239c0.345-0.34,0.69-0.682,1.035-1.021c0.393-0.389,0.741-0.429,0.79-0.093
			c0.049,0.336-0.222,0.917-0.619,1.301c-0.334,0.322-0.648,0.626-0.926,0.894C11.694,31.253,11.304,31.325,11.229,31.029z
			 M11.695,32.657c-0.001-0.004-0.002-0.009-0.003-0.013c-0.168-0.525,0.03-1.272,0.421-1.663c0.485-0.482,0.97-0.966,1.458-1.447
			c0.029-0.032,0.059-0.065,0.088-0.098c0.049-0.053,0.168,0.346,0.3,0.882c0.008,0.031,0.016,0.063,0.024,0.096
			c0.135,0.536-0.043,1.277-0.435,1.668c-0.275,0.272-0.548,0.546-0.82,0.814C12.335,33.287,11.864,33.182,11.695,32.657z
			 M13.585,37.044c-0.258-0.465-0.5-0.939-0.726-1.42c-0.234-0.5-0.095-1.236,0.29-1.633c0.266-0.273,0.531-0.546,0.796-0.818
			c0.385-0.396,0.857-0.298,1.087,0.204c0.244,0.534,0.513,1.055,0.807,1.56c0.277,0.479,0.197,1.156-0.207,1.532
			c-0.27,0.252-0.54,0.505-0.81,0.757C14.418,37.602,13.854,37.527,13.585,37.044z M15.167,39.498
			c-0.233-0.312-0.081-0.874,0.327-1.247c0.283-0.259,0.566-0.52,0.849-0.777c0.407-0.373,0.924-0.428,1.165-0.13
			c0.24,0.298,0.117,0.836-0.288,1.211c-0.296,0.274-0.592,0.549-0.888,0.822C15.926,39.752,15.399,39.809,15.167,39.498z
			 M34.428,49.262c-0.938,0.024-1.873-0.036-2.799-0.159c-0.547-0.071-0.945-0.195-0.895-0.248c0.051-0.052,0.009-0.125-0.094-0.166
			c-0.102-0.041-0.238-0.018-0.307,0.053c-0.066,0.067-0.562,0.04-1.1-0.087c-0.281-0.066-0.562-0.139-0.842-0.213
			c-0.533-0.142-0.82-0.417-0.646-0.596s-0.027-0.5-0.439-0.731c-0.412-0.232-0.938-0.232-1.185,0.016
			c-0.247,0.249-0.866,0.29-1.369,0.062c-0.137-0.062-0.272-0.125-0.407-0.188c-0.498-0.239-0.636-0.726-0.321-1.062
			c0.315-0.336,0.213-0.879-0.214-1.229c-0.03-0.024-0.06-0.049-0.089-0.073c-0.425-0.352-1.079-0.342-1.477,0.041
			c-0.002,0.003-0.005,0.005-0.007,0.007c-0.398,0.385-1.093,0.447-1.541,0.124c-0.264-0.189-0.524-0.384-0.781-0.583
			c-0.437-0.337-0.466-0.939-0.076-1.332c0.109-0.108,0.22-0.22,0.33-0.331c0.39-0.392,0.545-0.893,0.352-1.124
			c-0.193-0.231-0.675-0.121-1.082,0.251c-0.163,0.148-0.325,0.299-0.488,0.446c-0.407,0.373-0.786,0.634-0.845,0.583
			c-0.036-0.031-0.072-0.062-0.107-0.094c-0.529-0.477-1.026-0.979-1.495-1.5c-0.37-0.41-0.337-1.076,0.051-1.469
			c0.287-0.291,0.574-0.582,0.862-0.874c0.388-0.394,1-0.376,1.389,0.017c3.824,3.865,9.255,6.244,14.837,6.441
			C34.585,45.272,37.016,49.194,34.428,49.262z"/>
		<path d="M35.667,18.028c0.408-0.373,0.64-0.683,0.519-0.692c-0.123-0.011-0.537,0.308-0.924,0.701
			c-0.963,0.981-1.931,1.957-2.894,2.939c-0.388,0.394-0.369,0.412,0.038,0.038C33.493,20.017,34.58,19.022,35.667,18.028z"/>
		<path d="M38.533,33.538c-0.054-0.021-0.147,0.013-0.208,0.075c-0.062,0.062-0.018,0.084,0.098,0.039
			C38.536,33.606,38.585,33.557,38.533,33.538z"/>
		<path d="M29.537,3.145c0.413-0.179,1.067-0.628,1.461-1.016c0.097-0.096,0.194-0.191,0.291-0.287
			c0.394-0.388,0.498-0.687,0.233-0.662c-0.264,0.023-0.795,0.366-1.185,0.757c-0.278,0.279-0.557,0.56-0.835,0.839
			C29.113,3.167,29.125,3.324,29.537,3.145z"/>
	</g>
</g>
<g>
</g>
<g>
</g>
<g>
</g>
<g>
</g>
<g>
</g>
<g>
</g>
<g>
</g>
<g>
</g>
<g>
</g>
<g>
</g>
<g>
</g>
<g>
</g>
<g>
</g>
<g>
</g>
<g>
</g>
</svg>
